<svg width="343" height="45" fill="none" xmlns="http://www.w3.org/2000/svg"><path d="M4.998 12.03v-.594c0-2.412-.108-5.724-.432-7.38-.144-.72-.486-.918-1.26-1.008-.216-.018-.45-.18-.45-.396 0-.198.324-.594.774-.594.126 0 .27.036.432.108.396.198.666.306 1.026.45.54.198.504.846.522 1.314 0 .414.018.828.036 1.242.288.036.576.072.864.072.432 0 .846-.054 1.242-.216.144-.054.306-.252.45-.36.36-.27.648-.36.954-.36.45 0 .792.216.792.504 0 .486-1.26 1.26-2.862 1.26-.396 0-.864-.036-1.422-.126.054 1.638.126 3.258.126 4.896 0 .432 0 .882-.018 1.314 1.494.288 3.024.756 4.05 1.278.558.288.792.702.792 1.044a.52.52 0 01-.54.54c-.234 0-.522-.108-.846-.378-1.044-.882-2.214-1.422-3.474-1.728-.054 1.476-.828 2.268-2.142 2.268s-2.88-.846-2.88-1.926c0-.108 0-1.368 2.448-1.368.54 0 1.152.054 1.818.144zm-2.088.558h-.054c-.648 0-1.386.252-1.386.648 0 .504 1.098 1.098 2.016 1.098 1.26 0 1.404-.792 1.476-1.584a12.8 12.8 0 00-2.052-.162zm20.484 2.322h.018c2.088 0 4.95-2.916 4.95-5.706 0-1.548-.864-3.006-2.106-3.006-.864 0-1.818.684-2.43 1.764-.396.684-.756.954-1.044.954-.396 0-.684-.504-.684-1.278 0-1.368.954-3.276 3.546-4.428a.125.125 0 00.072-.054c0-.018-.018-.036-.054-.036-1.512-.45-2.178-1.404-2.178-1.746 0-.252.198-.414.396-.414.144 0 .306.108.396.36.306.81 2.106 1.098 2.214 1.098.252 0 .486-.144.792-.144.45 0 .99.306.99.63 0 .27-.378.522-1.026.54-1.836 0-4.338 2.016-4.338 3.51 0 .108.018.18.072.216.036.036.072.054.108.054.072 0 .126-.072.18-.144.828-.99 2.016-1.602 3.132-1.602 1.962 0 3.006 1.908 3.006 3.744 0 4.248-4.878 6.732-6.354 6.732-.432 0-.63-.198-.63-.414 0-.288.342-.63.972-.63zm26.514-1.836c0 .954-2.664 1.206-4.104 1.206-3.906 0-6.084-1.836-6.084-3.402 0-.288.216-.432.432-.432.18 0 .36.108.378.324.09 1.908 3.258 2.448 4.986 2.448.486 0 .99-.036 1.494-.09.468-.054.594-.198 1.008-.378.414-.198.774-.27 1.044-.27.72 0 .846.378.846.594zM48.342 5.46h-.108c-.234-.018-.432-.036-.594-.036-1.674 0-3.654 1.08-3.996 1.278-.054.036-.108.036-.162.036-.198 0-.36-.162-.36-.342 0-.09.036-.18.162-.252.432-.234 1.224-.576 1.836-.918.108-.054.216-.108.216-.162 0-.09-.756-.108-1.008-.108-.846 0-1.728.108-2.466.108-1.296 0-1.35-.306-1.35-.468 0-.216.162-.414.396-.414.036 0 .09 0 .144.018.18.072.45.09.756.09.882 0 2.196-.198 3.654-.198.396 0 3.492.018 3.492.99 0 .216-.216.378-.612.378zm20.105 9.486v.018c0 .396-.558.522-1.116.522-2.376 0-5.454-1.35-5.454-3.816 0-1.296.864-2.61 2.232-3.366-2.79.846-3.15 1.044-3.798 1.458-.54.342-.936.594-1.566.594-.648 0-1.008-.306-1.008-.558 0-.162.162-.324.324-.432.54-.342 2.088-.612 2.502-.954 1.674-1.494 4.392-5.202 4.392-5.364 0-.036-.018-.054-.054-.054a.477.477 0 00-.18.054c-1.71.81-2.052.954-2.466.954-.72 0-1.404-.504-1.404-1.188 0-.198.09-.756.396-.756.108 0 .234.108.342.234.432.558.882.738 1.224.738.072 0 .414-.018 1.854-.576.306-.108.504-.234.702-.504.09-.108.198-.144.342-.144.432 0 1.35.378 1.35.72 0 .216-.27.432-.558.576a2.581 2.581 0 00-.666.522c-1.584 1.566-2.97 3.492-4.428 4.878l-.018.018h.072c.918-.324 3.87-1.134 5.328-1.44.666-.144 1.512-.522 2.178-.522 1.746 0 1.98.36 1.98.702 0 .414-.432.504-.738.504h-.108c-.558-.018-1.026-.036-1.494-.036-.108 0-.846 0-1.278.054-3.078.162-4.698 2.304-4.698 3.762 0 2.142 2.916 2.754 3.348 2.754.252 0 .504-.072.774-.108.108 0 .216-.018.324-.018 1.062 0 1.368.432 1.368.774zm26.085.306h-.036a19.272 19.272 0 00-2.124-.126c-.558 0-1.098.036-1.584.108-.288.054-.414-.252-.414-.45 0-.18.108-.36.36-.36h.018c.756 0 .972-.252.972-.594 0-.342-.72-2.358-1.278-3.906-.054-.126-.252-.18-1.746-.18-.612 0-1.26.018-1.836.054-.09 0-.342.054-.45.36-.252.864-.864 2.61-1.008 3.15-.054.198-.09.36-.09.486 0 .378.234.504.648.576.162.036.36 0 .576.072a.33.33 0 01.216.324c0 .234-.162.468-.45.468h-.054a12.79 12.79 0 00-1.638-.126c-.54 0-1.062.054-1.62.126h-.054c-.234 0-.36-.18-.36-.378 0-.216.126-.45.378-.468 1.296-.108 1.836-1.818 2.916-5.274.54-1.71 1.224-4.158 1.962-5.796.054-.162.054-.54.144-.684.162-.252.378-.432.45-.756a.364.364 0 01.36-.288c.126 0 .252.072.306.252.162.576.594 1.836.9 2.7a335.309 335.309 0 013.114 8.622c.216.612.486.972 1.008 1.17.162.054.36.036.54.108.198.072.27.216.27.36 0 .216-.18.45-.396.45zm-7.506-6.336c.144 0 .648.018 1.188.018.666 0 1.404-.018 1.692-.054.054 0 .09-.036.09-.072s-.018-.072-.036-.108c-.396-1.098-1.206-3.654-1.494-4.464-.018-.072-.036-.09-.054-.09a.039.039 0 00-.036.036c-.612 1.008-1.512 4.392-1.512 4.572 0 .09.072.126.162.162zm16.214-.666h.072c.162 0 .252.144.252.324 0 .162-.072.324-.234.36-.378.09-.684.09-.792.414-.648 1.8-2.106 5.058-2.358 6.066-.054.198-.198.306-.342.306-.144 0-.288-.09-.324-.306-.324-1.44-1.89-4.878-2.304-5.796-.198-.432-.432-.612-.882-.684-.126-.018-.18-.162-.18-.324 0-.18.09-.36.252-.36 0 0 .648.108 1.458.108.414 0 .864-.036 1.278-.108h.036c.162 0 .234.144.234.306s-.072.342-.216.396c-.27.072-.702.018-.702.342 0 .072.018.162.054.27.486 1.152.972 2.43 1.422 3.834.036.108.09.162.108.162.126 0 1.62-3.528 1.62-4.284 0-.252-.27-.27-.81-.342-.198-.018-.288-.18-.288-.342 0-.162.108-.342.342-.342.018 0 .594.108 1.278.108.324 0 .702-.036 1.026-.108zm3.885 3.294v.09c0 1.566.792 2.97 2.412 2.97.522 0 .738-.126 1.008-.27.27-.144.288-.324.504-.522a.462.462 0 01.324-.126c.198 0 .378.126.378.36 0 .36-.81 1.494-2.646 1.494-1.656 0-3.186-1.206-3.186-3.492 0-2.412 1.764-4.05 3.402-4.05 1.278 0 2.304.99 2.304 1.962 0 .288-.108.72-1.17.792-.468.036-.63.036-2.772.036-.288.018-.558.072-.558.756zm3.186-1.944c0-.576-.684-.918-1.188-.918-1.116 0-1.674 1.332-1.674 1.476 0 .054.018.072.072.072.036 0 .072 0 .108-.018.576-.216 1.314-.162 2.196-.27.306-.036.486-.09.486-.342zm23.203 5.634h-.018c-.198 0-.324-.216-.324-.414 0-.162.072-.306.288-.324 1.044-.144 1.422-.486 1.422-1.26 0-.09 0-.18-.018-.288-.126-1.602-.234-5.616-.234-7.578v-.666s-.036-.108-.072-.108-3.654 7.722-4.338 9.774c-.18.576-.18.702-.468.72-.216 0-.36-.198-.432-.576-.162-.846-.954-2.358-1.836-4.086-.918-1.854-1.962-3.87-2.538-5.4-.036-.108-.09-.162-.126-.162-.036 0-.072.072-.072.198v.378c0 1.692-.252 4.734-.252 6.336 0 2.52.09 2.538 1.206 2.718.18.018.27.18.27.36s-.108.36-.324.378c-.018 0-.918-.126-1.944-.126-.522 0-1.062.036-1.548.126h-.054c-.198 0-.306-.18-.306-.36a.39.39 0 01.36-.396c1.08-.09 1.404-.324 1.458-2.124.072-2.196.378-5.634.378-7.11 0-.18 0-.342-.018-.45-.162-1.584-.198-1.71-1.584-1.836-.18-.018-.306-.252-.306-.45 0-.162.09-.306.27-.306 0 0 .774.108 1.62.108a6.04 6.04 0 001.008-.072h.09c.324 0 .288.252.378.522.108.342.324.828.45 1.062.612 1.296 1.458 3.042 2.376 5.004.558 1.188 1.224 2.484 1.692 3.456.018.036.054.054.072.054.018 0 .036 0 .054-.054 1.26-2.754 3.78-7.812 4.14-9.594.054-.324.126-.378.342-.378h.162c.198 0 .522.018.882.018.594 0 1.314-.018 1.782-.09h.018c.162 0 .252.18.252.36 0 .162-.09.342-.27.36-.864.072-1.494.126-1.494 2.124 0 .27 0 .558.018.882.144 2.25.324 5.652.342 6.912.036 1.116.306 1.512 1.512 1.62.216.018.324.198.324.378s-.108.36-.342.36c0 0-1.206-.108-2.466-.108-.63 0-1.26.018-1.782.108zm14.337-.756h.036c.198 0 .306.18.306.36 0 .144-.072.288-.27.306-.612.09-.828.288-1.242.486-.054.018-.09.036-.144.036-.432 0-.756-.882-.774-1.206 0-.054-.018-.09-.036-.09s-.036.018-.054.054c-.414.504-1.188 1.044-2.178 1.044h-.054c-2.034 0-2.214-1.62-2.214-2.754 0-.72.072-1.458.072-2.124 0-.972-.018-1.296-1.026-1.476-.126-.018-.198-.144-.198-.27 0-.144.072-.288.252-.324.558-.126 1.188-.18 1.602-.558a.346.346 0 01.216-.072c.306 0 .36.234.36 1.098 0 1.08-.144 2.484-.144 3.528 0 1.17.144 1.98 1.476 1.98 1.062 0 1.908-1.026 1.926-1.692.018-.198.018-.684.018-1.188V10.05c0-.594-.198-.846-.882-.954-.108-.018-.162-.144-.162-.27 0-.144.072-.288.18-.306a4.255 4.255 0 001.638-.576.26.26 0 01.126-.036c.144 0 .342.126.342.27v.018c-.036.468-.072.846-.072 1.44v.414c0 .756 0 2.412-.018 3.312v.126c0 .756.288 1.008.738 1.008.054 0 .108-.018.18-.018zm5.518-6.462v.018c-.036.846-.108 2.214-.108 3.456 0 .288.018.558.018.828 0 .666.036 1.656.036 2.412 0 4.752-2.7 6.48-3.024 6.48-.18 0-.378-.162-.378-.342 0-.072.036-.162.144-.252 1.764-1.404 1.998-3.96 1.998-7.344 0-1.116-.036-2.142-.09-2.808-.072-.9.018-1.008-.828-1.224a.308.308 0 01-.216-.288c0-.144.09-.27.252-.288.738-.144 1.224-.324 1.71-.738a.428.428 0 01.216-.054c.144 0 .27.054.27.144zm-.828-2.232a1.003 1.003 0 01-1.026-1.026c0-.558.45-.99 1.026-.99.54 0 .99.432.99.99 0 .594-.45 1.026-.99 1.026zm7.753 9.468h-.054c-.594-.072-1.008-.126-1.458-.126-.342 0-.72.036-1.206.144-.054.018-.09.018-.144.018a.35.35 0 01-.36-.36c0-.198.126-.396.378-.396.63 0 .936-.234.936-1.008v-.072a42.43 42.43 0 01-.036-1.548c0-.522.018-1.026.018-1.422 0-.612-.108-1.188-.846-1.224-.306-.018-.414-.162-.414-.324s.144-.342.36-.342h.072c.576 0 1.188-.414 1.584-.684.036-.036.09-.036.144-.036.162 0 .36.09.36.27v.054c-.108.522-.144 1.278-.144 1.89v.324c.018.324.018.72.018 1.134 0 .648-.018 1.35-.036 1.908v.144c0 .864.378.882.81.882.252 0 .396.216.396.414 0 .18-.126.36-.378.36zm-1.458-9.468a1.01 1.01 0 01-1.008-1.026c0-.558.45-.99 1.008-.99.54 0 .972.432.972.99 0 .576-.432 1.026-.972 1.026zm10.5 8.154c0 .324-.864 1.566-2.43 1.566-1.44 0-3.15-1.134-3.15-3.348 0-2.304 1.728-4.14 3.816-4.14 1.494 0 1.728.522 1.728.954 0 .378-.18.684-.414.684a.424.424 0 01-.234-.09c-.216-.144-.378-.432-.63-.576a1.55 1.55 0 00-.81-.234c-.774 0-2.16.882-2.16 2.898 0 1.692 1.206 2.718 2.268 2.718.522 0 1.008-.234 1.404-.666a.314.314 0 01.252-.126c.198 0 .36.162.36.36zm8.553.504h.036c.126 0 .234-.072.378-.18a.287.287 0 01.144-.054c.162 0 .306.144.306.342 0 .378-.666 1.026-1.458 1.026-.522 0-.99-.288-1.134-.882-.018-.072-.018-.162-.072-.162-.018 0-.036.018-.072.054-.702.756-1.44.864-1.944.864-1.548 0-1.656-1.332-1.656-1.422 0-.666.45-1.224 1.152-1.602.936-.504 1.98-.522 2.43-.63.072-.018.162-.09.162-.198.036-.126.036-.81.072-1.206 0-.9-.18-1.674-1.026-1.674-.162 0-.9.054-.954.774 0 .558-.738.792-.936.792-.27 0-.522-.162-.522-.414 0-.396.846-1.836 2.61-1.836.81 0 2.07.288 2.07 2.034 0 .09-.018.18-.018.252-.054.63-.144 2.16-.144 2.952v.072c0 .72.252 1.098.576 1.098zm-1.8-1.566v-.45s-.036.054-.198.072c-1.8.162-2.142.756-2.142 1.278 0 .234.108.414.306.522.09.072.216.108.36.108 1.044 0 1.674-.99 1.674-1.53zm14.165-8.298h-.324c.216.198.414.522.414.918 0 .936-2.592 5.112-4.05 6.822-.324.396-.594.648-.918.648-.522 0-2.052-1.17-2.052-3.24 0-2.826 2.988-5.814 7.146-5.814 3.69 0 5.976 2.358 5.976 4.914 0 1.674-.972 3.366-2.898 4.41-1.746.918-5.67 1.656-5.67.684 0-.252.36-.522.936-.522.108 0 .216.018.342.036.126.018.27.036.432.036 1.638 0 5.742-1.188 5.742-4.662 0-2.322-1.926-4.23-5.076-4.23zm-.954.072c-3.078.378-5.04 2.88-5.04 4.878 0 1.386.846 2.214 1.17 2.214.504 0 3.996-5.346 3.996-6.678a.7.7 0 00-.126-.414zm22.158 5.688c1.548 1.062 1.746 1.674 1.746 2.106 0 .396-.198.702-.486.702-.234 0-.522-.18-.828-.648-.45-.72-1.53-1.62-2.196-2.178a4.12 4.12 0 00-1.494-.846c-.396-.126-.558-.342-.558-.522 0-.198.18-.36.468-.36.504 0 2.106.936 2.736 1.332 1.602-1.206 3.474-3.276 3.474-3.456 0-.072-.09-.108-.216-.108-.468 0-2.88.144-7.83 1.008-.144.036-.306.036-.468.036-1.422 0-2.754-1.08-2.754-2.196 0-.198.108-.306.252-.306.09 0 .198.036.324.108.72.432 1.764 1.332 2.628 1.332 1.08-.018 6.57-.738 8.208-.828.378-.018.522-.45.954-.45.432 0 1.476.432 1.476.792 0 .18-.162.378-.468.522a4.53 4.53 0 00-1.098.702c-1.26 1.08-2.502 2.394-3.87 3.258zm18.318-.882c-3.96 3.852-7.812 4.446-8.1 4.446-.45 0-.666-.18-.666-.396 0-.306.414-.684 1.152-.702 1.332-.036 3.186-1.008 4.662-2.106 3.618-2.718 4.518-5.112 4.518-5.148 0-.054-.036-.054-.072-.054-.198 0-2.988.468-4.662.882-.216.054-.396.09-.558.09-.72 0-1.818-1.098-1.818-1.818 0-.216.072-.378.234-.378.072 0 .162.036.288.126.486.342 1.044.99 1.674.99.558 0 3.114-.36 4.644-.648.36-.072.522-.522.918-.522.09 0 1.494.414 1.494.774 0 .108-.09.216-.216.324-.216.162-.684.378-.792.594-.594 1.098-1.35 2.106-2.214 3.042 2.538 1.278 4.68 2.898 4.68 3.96 0 .342-.18.612-.45.612-.198 0-.432-.126-.684-.468-.954-1.278-1.8-2.268-4.032-3.6zm22.878-2.79v-.072c0-.126-.054-.144-.162-.144-.846.018-1.836.108-2.826.216-1.602 5.814-6.102 8.55-7.092 8.55-.252 0-.45-.126-.45-.36 0-.306.288-.666.81-.792 1.854-.45 4.662-3.708 5.688-7.272-1.08.144-2.07.306-2.7.396a3.406 3.406 0 01-.558.054c-.702 0-1.836-.99-1.836-1.602 0-.162.018-.414.216-.414.072 0 .162.018.27.09.576.324 1.134 1.008 1.818 1.026.45 0 1.674-.144 2.97-.306.09-.414.216-1.17.216-1.98 0-.684-.108-.972-1.098-1.206-.216-.054-.378-.18-.378-.324 0-.252.468-.468.774-.468.198 0 .288.036 1.242.432.522.198.774.36.774.702 0 .054 0 .108-.018.18-.054.27-.18.594-.216 1.08-.036.378-.126.882-.252 1.458 1.008-.108 1.944-.216 2.538-.216.342-.018.324-.414.72-.414.414 0 1.404.486 1.404.792 0 .306-.684.432-.774.828-.324 1.566-.36 4.59-1.422 6.39-.576.954-1.35 1.386-2.196 1.386-.954 0-2.466-.81-2.466-1.152 0-.18.162-.36.36-.36.036 0 .072 0 .108.018.612.252 1.278.468 1.872.468.576 0 1.08-.216 1.422-.81 1.008-1.8 1.08-4.176 1.242-6.174zm12.042 6.336c-.342.126-.468.324-.594.468-.162.18-.288.288-.432.288-.414 0-1.08-1.098-1.08-1.35 0-.09.054-.162.18-.198.27-.09.36-.252.36-.342.09-.612.198-2.484.198-4.446 0-.378-.018-.774-.018-1.152 0-.558-.288-.864-1.368-1.17-.162-.054-.234-.126-.234-.216 0-.162.36-.486.864-.486.198 0 .414.054.594.18.216.144.792.396 1.224.63.18.108.234.27.234.468 0 .36-.18.792-.234 1.062-.234 1.548-.27 3.348-.288 5.13 0 .09.018.126.054.126.018 0 .054 0 .09-.018 2.898-.882 8.478-4.41 8.892-5.994a.746.746 0 01.702-.558c.252 0 .45.144.45.414 0 1.08-4.662 5.094-9.594 7.164zM291.84 8.79h-.504c-.738-.018-1.44-.018-2.142-.018-1.746 0-3.384.054-5.256.288-.468.054-.81.144-1.134.144-.828 0-2.232-.99-2.232-1.782 0-.198.072-.45.306-.45.09 0 .198.036.27.108.72.54 1.512.99 2.052.99h.126c1.152 0 5.688-.216 8.28-.288h.972c.774.054 1.116.252 1.116.45 0 .558-1.44.558-1.854.558zm13.032 5.292v.144c0 1.08-.306 1.404-.54 1.404-.45 0-.756-.954-.756-1.638 0-.162.018-.288.036-.396.054-.216.162-.396.18-.63.072-.576.144-3.6.144-6.228 0-1.116-.018-2.16-.054-2.934-.018-.612-.306-.99-1.44-1.314-.18-.054-.234-.126-.234-.234 0-.198.378-.486.846-.486.306 0 .36.036 1.782.828.198.108.27.324.27.576 0 .378-.162.846-.198 1.134-.072.558-.108 1.458-.126 2.484.558.072 4.464.702 4.464 2.16 0 .306-.18.522-.468.522-.198 0-.45-.09-.738-.342-.9-.774-1.89-1.278-3.258-1.62v.918c0 1.998.036 4.194.09 5.652zm4.752-8.064c-.162 0-.342-.108-.522-.342-.576-.738-1.674-1.386-2.07-1.584-.126-.054-.162-.144-.162-.252 0-.162.144-.324.36-.324.432 0 2.322.9 2.682 1.44a.917.917 0 01.162.486c0 .324-.198.576-.45.576zm1.458-1.314c-.144 0-.324-.09-.504-.306-.594-.738-1.71-1.35-2.124-1.512a.28.28 0 01-.18-.252c0-.18.144-.342.378-.342.18 0 2.304.774 2.718 1.35a.8.8 0 01.162.504c0 .306-.18.558-.45.558zm22.176 7.38c0 .288-.198.504-.558.504-.288 0-.648-.126-1.098-.414-1.998-1.278-5.184-3.924-7.614-5.418-.252-.162-.486-.234-.702-.234a.87.87 0 00-.612.234c-.666.558-1.206 1.35-1.764 2.016-.396.45-.756.756-1.188.756-.216 0-.468-.09-.756-.288-.918-.612-1.098-.738-1.098-1.188 0-.162.072-.288.216-.288a.47.47 0 01.252.09c.504.306.9.324 1.026.324.216 0 .432-.072.684-.198.702-.36 1.422-1.332 2.124-1.854.324-.234.666-.36 1.044-.36.396 0 .828.126 1.296.414 2.592 1.602 4.932 3.6 7.776 4.806.666.288.972.738.972 1.098zm8.1 1.836c0-.846-.684-1.53-1.53-1.53s-1.53.684-1.53 1.53.684 1.53 1.53 1.53 1.53-.684 1.53-1.53zm.756 0a2.278 2.278 0 01-2.286 2.286 2.278 2.278 0 01-2.286-2.286 2.29 2.29 0 012.286-2.286 2.29 2.29 0 012.286 2.286z" fill="#fff"/><path d="M93.159 36.853a2.672 2.672 0 01-.334 1.008c-.176.317-.397.61-.662.88a5.567 5.567 0 01-.897.732 6.528 6.528 0 01-1.031.545c-.352.152-.705.27-1.06.351a4.44 4.44 0 01-.997.123 6.273 6.273 0 01-.462-.03 6.66 6.66 0 01-.458-.07 2.835 2.835 0 01-.498-.128l.264-7.846a9.629 9.629 0 01-1.16-.076l1.5-.85c.137.024.27.04.398.047a4.94 4.94 0 00.961-.023c.192-.028.38-.057.563-.088.183-.035.365-.065.545-.088.18-.027.361-.041.545-.041.3 0 .576.043.826.129.254.082.47.205.65.369.184.16.322.357.416.592.098.234.143.504.135.808-.02.196-.088.399-.205.61-.05.09-.113.185-.188.287a2.424 2.424 0 01-.275.31c-.11.106-.236.211-.38.317a4.406 4.406 0 01-.499.31 3.974 3.974 0 01.393-.023c.254 0 .474.027.662.082.191.05.355.12.492.21.14.087.256.184.346.294.09.11.162.222.217.34.128.273.193.58.193.92zm-3.48 2.737c.32 0 .603-.045.849-.135a1.68 1.68 0 00.621-.387c.168-.171.295-.378.38-.62.087-.247.13-.526.13-.839 0-.265-.045-.51-.135-.732a1.646 1.646 0 00-.38-.58 1.796 1.796 0 00-1.582-.492c-.099.02-.196.054-.294.105.332-.176.604-.355.815-.539.21-.187.375-.371.492-.55.12-.184.203-.362.246-.534.047-.172.07-.332.07-.48 0-.223-.04-.43-.123-.622a1.528 1.528 0 00-.322-.503 1.405 1.405 0 00-.486-.334 1.488 1.488 0 00-.604-.123 7.016 7.016 0 00-.82.07l-.264 7.066c.281.086.537.147.768.182.23.031.443.047.638.047zm13.516-.492a4.253 4.253 0 01-.533.45 4.589 4.589 0 01-.568.346 3.88 3.88 0 01-.557.235 1.934 1.934 0 01-.809.094 1.002 1.002 0 01-.375-.1.812.812 0 01-.304-.275c-.086-.125-.13-.303-.13-.533v-.698a9.97 9.97 0 01-.679.61 6.605 6.605 0 01-.738.515c-.25.149-.504.266-.762.352-.258.09-.512.134-.762.134-.32 0-.601-.072-.843-.216a1.958 1.958 0 01-.61-.551 2.46 2.46 0 01-.369-.762 2.978 2.978 0 01-.123-.838c0-.207.016-.41.047-.609a4.043 4.043 0 01.287-1.061c.066-.144.135-.263.205-.357.13-.176.293-.346.492-.51a5.87 5.87 0 011.407-.855c.265-.117.529-.219.79-.305a6.5 6.5 0 01.774-.2c.25-.046.48-.07.692-.07.218 0 .476.012.773.036.297.02.635.062 1.014.129a344.978 344.978 0 00-.071 2.115 62.18 62.18 0 00-.023 1.389c0 .214-.004.425-.012.632-.008.207.008.393.047.557a.75.75 0 00.229.398c.117.102.296.153.539.153.144 0 .298-.018.462-.053a4.9 4.9 0 00.51-.152zm-3.263-4.196a4.417 4.417 0 00-.75-.129 7.46 7.46 0 00-.762-.04 5.93 5.93 0 00-.703.04 1.937 1.937 0 00-.258.047.565.565 0 00-.17.059c-.07.035-.152.121-.246.258a2.77 2.77 0 00-.27.498 4.33 4.33 0 00-.222.674 3.35 3.35 0 00-.088.773c0 .254.037.51.111.768.074.253.182.482.322.685.145.203.32.37.528.498.21.125.45.188.72.188a1.626 1.626 0 001.184-.457 1.87 1.87 0 00.358-.504 3.1 3.1 0 00.234-.621v-1.864l.011-.873zm6.561 4.448l-1.4 1.007c.035-.754.062-1.396.082-1.927a92.585 92.585 0 00.059-2.309c.019-.473-.045-.842-.194-1.107a.727.727 0 00-.679-.405 1.14 1.14 0 00-.311.047 2.154 2.154 0 00-.34.123c.152-.11.313-.22.481-.334a5.12 5.12 0 01.515-.316 3.43 3.43 0 01.528-.229c.179-.062.355-.093.527-.093.164 0 .312.033.445.1a.65.65 0 01.311.333c.062.133.105.282.129.445.027.165.045.344.052.54a4.837 4.837 0 011.448-1.06c.269-.13.541-.225.814-.288.274-.063.531-.078.774-.047.175.023.357.072.545.147.191.074.365.187.521.34.16.152.289.353.387.603.097.246.142.555.134.926-.011.437-.031.84-.058 1.207-.027.363-.041.685-.041.967 0 .167.014.328.041.48.027.148.074.28.141.393a.79.79 0 00.281.263c.117.067.263.1.439.1.156 0 .321-.03.492-.088a2.17 2.17 0 00.528-.281 9.998 9.998 0 01-.785.638 5.16 5.16 0 01-.657.416c-.203.106-.392.18-.568.223a1.813 1.813 0 01-.51.064.937.937 0 01-.422-.1.657.657 0 01-.281-.275 1.438 1.438 0 01-.146-.492 4.64 4.64 0 01-.03-.744c.012-.258.028-.54.047-.85.02-.312.029-.62.029-.925a4.93 4.93 0 00-.07-.897 1.406 1.406 0 00-.258-.615 1.054 1.054 0 00-.509-.363c-.215-.078-.493-.117-.832-.117-.247 0-.456.048-.627.146a1.226 1.226 0 00-.428.387 2.079 2.079 0 00-.27.574 5.067 5.067 0 00-.146.691 9.319 9.319 0 00-.065.75c-.011.254-.021.5-.029.739a18.99 18.99 0 01-.023.673 3.174 3.174 0 01-.071.54zm17.736-4.078a4.378 4.378 0 01-.539.334v.374c0 .528-.029.963-.088 1.307a5.505 5.505 0 01-.182.82 1.822 1.822 0 01-.263.551 2.785 2.785 0 01-.446.37 6.91 6.91 0 01-.656.386c-.246.125-.51.248-.791.37a9.87 9.87 0 01-.838.31c-.281.09-.552.16-.814.21a3.476 3.476 0 01-.703.083 6.299 6.299 0 01-1.828-.258 4.41 4.41 0 01-1.489-.768 3.65 3.65 0 01-1.002-1.271c-.246-.508-.369-1.096-.369-1.764 0-.418.059-.812.176-1.183a4.4 4.4 0 01.498-1.05c.211-.324.461-.622.75-.896a6.63 6.63 0 01.937-.738c.34-.223.696-.418 1.067-.586a9.092 9.092 0 012.273-.68 6.993 6.993 0 011.078-.088c.227 0 .44.01.639.03.199.015.379.037.539.064.164.028.305.059.422.094.121.031.215.063.281.094.192.082.287.197.287.345 0 .09-.035.178-.105.264a1.534 1.534 0 01-.258.246 3.047 3.047 0 01-.351.223 6.986 6.986 0 01-.721.34c-.102.039-.178.07-.229.093.075-.078.112-.15.112-.216a.34.34 0 00-.035-.182.478.478 0 00-.147-.158 6.924 6.924 0 00-.252-.14 2.406 2.406 0 00-.398-.182 3.794 3.794 0 00-.539-.153 3.268 3.268 0 00-.674-.064c-.348 0-.682.04-1.002.123-.32.078-.619.193-.897.346a3.413 3.413 0 00-1.341 1.313 3.806 3.806 0 00-.375.93c-.086.337-.129.7-.129 1.09 0 .7.109 1.301.328 1.805.222.5.529.912.92 1.237.39.32.851.558 1.382.714a6.343 6.343 0 001.741.229c.304 0 .584-.024.838-.07.257-.047.468-.116.632-.206a.862.862 0 00.247-.351 2.37 2.37 0 00.152-.516c.039-.191.066-.392.082-.603a13.446 13.446 0 00.029-1.195v-.452c-.164 0-.324-.004-.48-.012a9.685 9.685 0 00-.481-.011 3.72 3.72 0 00-.533.04 1.706 1.706 0 00-.527.165c.312-.219.578-.393.797-.522.218-.129.398-.228.539-.298.164-.082.298-.141.404-.176a2.2 2.2 0 01.439-.07c.168-.016.352-.026.551-.03.199-.004.412-.004.639 0 .226 0 .461-.004.703-.011zm8.876 5.185a14.68 14.68 0 01-2.256-.182l.275-7.892a5.55 5.55 0 01-.357.011h-.551a1.49 1.49 0 01-.194-.011l1.477-.785c.406.004.736.002.99-.006.254-.012.461-.026.621-.041.161-.016.289-.031.387-.047a8.31 8.31 0 01.305-.053 6.98 6.98 0 01.926-.053c.66 0 1.252.09 1.775.27.523.176.969.435 1.336.78.367.34.648.761.844 1.265.195.504.293 1.084.293 1.74 0 .504-.086.977-.258 1.418a4.749 4.749 0 01-.697 1.219 5.504 5.504 0 01-1.026.996 6.919 6.919 0 01-2.578 1.207c-.453.11-.891.164-1.312.164zm1.318-.855a7.8 7.8 0 00.662-.024c.184-.02.332-.04.445-.064.133-.024.241-.053.323-.088.171-.082.351-.213.539-.393a3.15 3.15 0 00.527-.685 4.216 4.216 0 00.557-2.15c0-.579-.084-1.112-.252-1.6a3.687 3.687 0 00-.727-1.266 3.255 3.255 0 00-1.142-.832 3.654 3.654 0 00-1.506-.299 5.1 5.1 0 00-.68.041c-.199.024-.397.041-.592.053l-.252 7.13c.449.067.844.114 1.184.141.344.024.648.036.914.036zm8.859-4.342c.183-.176.382-.352.597-.528a7.29 7.29 0 01.662-.474c.227-.145.453-.262.68-.352.227-.09.439-.134.639-.134a1.7 1.7 0 01.398.046c.133.028.262.06.387.1.129.035.256.068.381.1a1.78 1.78 0 00.92-.041c-.246.187-.461.35-.645.486-.184.137-.355.25-.516.34-.16.086-.32.15-.48.193-.156.04-.332.055-.527.047a3.025 3.025 0 01-.545-.059 12.11 12.11 0 01-.463-.105 2.896 2.896 0 00-.363-.082c-.102-.02-.182-.014-.241.018-.14.07-.263.199-.369.386a3.15 3.15 0 00-.269.668 7.562 7.562 0 00-.176.838c-.043.3-.076.602-.1.902a13.71 13.71 0 00-.029.862c0 .27.008.504.023.703-.293.187-.535.35-.726.486-.192.137-.344.25-.457.34a2.54 2.54 0 00-.305.275l.018-.85c.008-.335.013-.687.017-1.054a102.324 102.324 0 00.024-2.068c0-.184-.006-.37-.018-.557a1.79 1.79 0 00-.094-.521.843.843 0 00-.257-.381c-.114-.098-.276-.147-.487-.147-.082 0-.168.01-.258.03a.953.953 0 00-.257.088c.164-.11.328-.221.492-.334a5.59 5.59 0 01.492-.305c.168-.094.334-.168.498-.223.168-.059.338-.088.51-.088.207 0 .367.045.48.135.117.09.201.203.252.34.055.137.086.287.094.451.012.164.018.32.018.469zm12.35-.85c-.449.219-.867.414-1.253.586a33.963 33.963 0 01-1.952.791c-.175.074-.371.15-.586.229a25.49 25.49 0 01-.662.222l-.709.217c-.238.07-.474.14-.709.211v.117c0 .402.063.764.188 1.084.129.32.306.594.533.82.227.223.498.395.814.516.317.117.666.176 1.049.176.2 0 .397-.016.592-.047a3.727 3.727 0 001.067-.316c.156-.075.294-.155.416-.24a5.353 5.353 0 01-.92.667c-.313.18-.627.327-.944.44a5.848 5.848 0 01-1.81.322 2.329 2.329 0 01-.844-.135 2.275 2.275 0 01-.75-.433 2.531 2.531 0 01-.574-.727 2.875 2.875 0 01-.305-1.02 2.858 2.858 0 01-.029-.392c.004-.129.017-.256.041-.38-.137.05-.262.097-.375.14-.11.043-.199.086-.27.129a6.21 6.21 0 01.34-.217 6.11 6.11 0 01.334-.193 3.02 3.02 0 01.34-.873c.164-.278.359-.536.586-.774.23-.238.486-.453.767-.645a5.209 5.209 0 011.799-.814c.313-.074.615-.111.908-.111.196 0 .36.03.493.088a.478.478 0 01.275.31c.023.157-.033.324-.17.504a1.748 1.748 0 01-.24.252 2.837 2.837 0 01-.387.276 5.67 5.67 0 01-.568.304 7.61 7.61 0 01-.78.316l4.295-1.4zm-4.646 1.424a3.25 3.25 0 00.451-.24 1.25 1.25 0 00.317-.27.484.484 0 00.123-.293.519.519 0 00-.123-.322.44.44 0 00-.247-.176.956.956 0 00-.316-.053c-.102 0-.199.012-.293.036-.094.02-.176.047-.246.082a.924.924 0 00-.193.181 2.08 2.08 0 00-.252.358 3.641 3.641 0 00-.246.51 3 3 0 00-.165.632c.247-.09.469-.17.668-.24a7 7 0 00.522-.205zm12.995 3.264a4.182 4.182 0 01-.533.45 4.589 4.589 0 01-.568.346 3.88 3.88 0 01-.557.235 1.934 1.934 0 01-.808.094.993.993 0 01-.375-.1.807.807 0 01-.305-.275c-.086-.125-.129-.303-.129-.533v-.698c-.215.211-.441.414-.68.61a6.575 6.575 0 01-.738.515c-.25.149-.504.266-.762.352-.258.09-.511.134-.761.134-.321 0-.602-.072-.844-.216a1.961 1.961 0 01-.61-.551 2.462 2.462 0 01-.369-.762 2.981 2.981 0 01-.123-.838c0-.207.016-.41.047-.609a4.018 4.018 0 01.287-1.06c.067-.145.135-.264.205-.358.129-.176.293-.346.492-.51a5.898 5.898 0 011.407-.855c.265-.117.529-.219.791-.305a6.23 6.23 0 01.773-.2c.25-.046.481-.07.692-.07.218 0 .476.012.773.036.297.02.635.062 1.014.129a344.978 344.978 0 00-.071 2.115c-.007.27-.013.516-.017.738-.004.223-.006.44-.006.65 0 .215-.004.426-.012.633-.008.207.008.393.047.557a.75.75 0 00.229.398c.117.102.296.153.539.153.144 0 .298-.018.463-.053.164-.04.334-.09.509-.152zm-3.263-4.196a4.442 4.442 0 00-.75-.129 7.474 7.474 0 00-.762-.04 5.93 5.93 0 00-.703.04 1.926 1.926 0 00-.258.047.568.568 0 00-.17.059c-.07.035-.152.121-.246.258a2.756 2.756 0 00-.27.498 4.44 4.44 0 00-.222.674 3.35 3.35 0 00-.088.773c0 .254.037.51.111.768.074.253.182.482.322.685.145.203.321.37.528.498.211.125.451.188.721.188a1.623 1.623 0 001.183-.457 1.88 1.88 0 00.358-.504 3.19 3.19 0 00.234-.621v-1.864l.012-.873zm10.944.944c-.011.23-.027.513-.047.85-.019.288-.043.652-.07 1.09-.023.433-.057.946-.1 1.54l-1.5.996a21.393 21.393 0 00.223-2.584c.012-.293.018-.566.018-.82 0-.242-.012-.483-.035-.72a1.904 1.904 0 00-.159-.64 1.07 1.07 0 00-.375-.456c-.164-.118-.39-.176-.679-.176-.258 0-.479.072-.662.217-.18.144-.334.388-.463.732s-.237.799-.323 1.365a29.172 29.172 0 00-.211 2.11l-1.4 1.007c.035-.754.063-1.396.082-1.927a92.585 92.585 0 00.059-2.309c.019-.473-.045-.842-.194-1.107a.727.727 0 00-.679-.405 1.14 1.14 0 00-.311.047 2.154 2.154 0 00-.34.123c.153-.11.313-.22.481-.334.168-.117.34-.222.515-.316a3.43 3.43 0 01.528-.229c.179-.062.355-.093.527-.093a.97.97 0 01.445.1.65.65 0 01.311.333c.062.137.107.295.135.475.031.176.05.369.058.58a5.252 5.252 0 011.231-1.06c.23-.141.461-.249.691-.323a1.47 1.47 0 01.645-.082c.14.02.287.055.439.105a1.653 1.653 0 01.82.598c.114.149.2.334.258.557.168-.18.354-.35.557-.51a4.34 4.34 0 01.621-.422 2.98 2.98 0 01.627-.264c.207-.062.4-.084.58-.064.176.023.357.072.545.147.191.07.365.183.521.34.157.152.284.353.381.603.102.246.147.555.135.926-.012.441-.033.847-.064 1.219-.028.37-.041.697-.041.978 0 .168.013.326.041.475.031.148.082.277.152.386.07.11.164.196.281.258a.928.928 0 00.44.094c.156 0 .32-.03.492-.088a2.18 2.18 0 00.527-.281 10.78 10.78 0 01-.791.638c-.234.172-.453.31-.656.416-.203.106-.393.18-.568.223-.172.047-.34.068-.504.064a.934.934 0 01-.422-.1.665.665 0 01-.282-.275 1.438 1.438 0 01-.146-.492 4.773 4.773 0 01-.029-.744c.011-.258.025-.54.041-.85.019-.312.029-.62.029-.925 0-.25-.012-.49-.035-.72-.02-.235-.07-.44-.152-.616a1.013 1.013 0 00-.364-.422c-.16-.106-.379-.158-.656-.158-.152 0-.289.021-.41.064a1.048 1.048 0 00-.328.188 1.337 1.337 0 00-.252.281 2.11 2.11 0 00-.188.351v.036zm9.416 1.429c-.301.23-.561.41-.78.54a6.15 6.15 0 01-.545.292c-.168.075-.31.121-.427.141-.188.024-.321-.02-.399-.129-.074-.113-.105-.299-.094-.556 0-.067.002-.182.006-.346.008-.164.016-.36.024-.586.011-.227.021-.475.029-.744l.035-.82c.012-.282.022-.557.029-.827.012-.27.022-.515.03-.738a26.61 26.61 0 01.041-.92.47.47 0 00-.076-.24.476.476 0 00-.2-.147c-.089-.043-.222-.056-.398-.04.129-.087.269-.184.422-.294a7.91 7.91 0 01.469-.316 3.94 3.94 0 01.468-.258c.153-.07.291-.105.416-.105a.38.38 0 01.252.082c.067.05.1.13.1.24l-.006.322-.012.61a76.27 76.27 0 01-.017.808l-.024.903-.023.908-.024.814a18.58 18.58 0 01-.017.627 9.536 9.536 0 01-.012.346.306.306 0 00.065.223c.05.066.113.12.187.163a.78.78 0 00.246.077.516.516 0 00.235-.03zm.328 2.21c-.184.128-.364.255-.539.38a9.183 9.183 0 01-.487.322c-.148.094-.281.17-.398.229a.68.68 0 01-.281.088.745.745 0 01-.252-.094 3.909 3.909 0 01-.352-.217 5.091 5.091 0 01-.527-.421l1.383-.985a3.269 3.269 0 001.054.627c.149.047.281.07.399.07zm12.959-3.411c-.078.074-.162.15-.252.229a9.96 9.96 0 01-.287.228c.098.239.194.467.287.686l.27.598c.086.18.166.337.24.474.074.137.141.246.199.328a1.644 1.644 0 00.586.504.903.903 0 00.399.088.94.94 0 00.468-.147c-.14.149-.291.295-.451.44a3.9 3.9 0 01-.498.38 2.688 2.688 0 01-.539.276 1.58 1.58 0 01-.568.106.686.686 0 01-.41-.135c-.125-.086-.248-.24-.37-.463a3.497 3.497 0 01-.169-.334l-.247-.55c-.089-.216-.189-.452-.298-.71-.11-.262-.223-.535-.34-.82a5.665 5.665 0 01-.803.176 6.223 6.223 0 01-.926.064h-1.728l-.481 1.125c-.027.074-.047.15-.058.229a.448.448 0 00.023.205.326.326 0 00.135.158c.07.039.174.059.31.059.079 0 .166-.008.264-.024s.209-.039.334-.07c-.219.207-.408.383-.568.527-.16.145-.313.262-.457.352a1.6 1.6 0 01-.44.193 1.832 1.832 0 01-.51.064c-.113 0-.195-.027-.246-.082a.34.34 0 01-.07-.228c0-.125.031-.277.094-.457a9.44 9.44 0 01.246-.598c.082-.199.242-.568.48-1.107l.37-.838a306.206 306.206 0 001.195-2.707l.879-1.975.275-.228c0-.121.01-.227.029-.317a.94.94 0 01.082-.234.986.986 0 01.135-.187c.051-.055.106-.108.164-.159l.252-.205c.164-.133.405-.332.721-.597-.047.09-.08.191-.1.304-.015.11-.023.22-.023.328a3.162 3.162 0 00.058.598c.016.094.038.18.065.258.043.14.117.363.223.668.105.305.23.656.375 1.055.148.394.308.816.48 1.265.172.45.344.889.516 1.319.113-.016.213-.032.299-.047a4.58 4.58 0 01.216-.036l.17-.029zm-3.492-2.865a420.66 420.66 0 01-.785 1.705 52.6 52.6 0 00-.703 1.57 46.3 46.3 0 001.441-.052c.438-.024.834-.051 1.19-.082a63.231 63.231 0 01-.364-.909l-.322-.867c-.098-.273-.187-.527-.269-.761a12.238 12.238 0 01-.188-.604zm9.99 5.901l-1.295 1.165c-.09-.367-.194-.742-.311-1.125a34.968 34.968 0 00-.744-2.15 7.388 7.388 0 00-.357-.943 3.024 3.024 0 00-.393-.657 1.413 1.413 0 00-.439-.38 1.034 1.034 0 00-.504-.13c-.204 0-.418.047-.645.141.121-.097.268-.216.44-.357.171-.145.351-.281.539-.41.187-.133.375-.246.562-.34.191-.094.365-.14.522-.14a.69.69 0 01.322.081.893.893 0 01.299.252c.07.094.156.227.257.399.106.168.217.361.334.58.118.219.237.457.358.715.125.254.242.517.351.79.114.27.215.544.305.82.094.274.168.538.223.792a16.058 16.058 0 00.949-1.33c.199-.332.354-.635.463-.908.113-.274.17-.52.17-.739a.964.964 0 00-.047-.304.594.594 0 00-.158-.247l1.394-.925a.617.617 0 01.147.246c.031.09.047.184.047.281 0 .2-.041.408-.123.627a4.144 4.144 0 01-.329.662 7.286 7.286 0 01-.457.686c-.168.23-.341.457-.521.68l-.516.65c-.168.21-.316.41-.445.598a3.63 3.63 0 00-.305.51.79.79 0 00-.093.41zm11.817-4.7a32.927 32.927 0 01-3.205 1.377c-.176.074-.371.15-.586.229a25.49 25.49 0 01-.662.222l-.709.217c-.238.07-.474.14-.709.211v.117c0 .402.063.764.188 1.084.129.32.306.594.533.82.226.223.498.395.814.516.317.117.666.176 1.049.176.199 0 .397-.016.592-.047a3.627 3.627 0 001.066-.316c.157-.075.295-.155.416-.24a5.315 5.315 0 01-.92.667c-.312.18-.627.327-.943.44a5.823 5.823 0 01-1.81.322 2.326 2.326 0 01-.844-.135 2.255 2.255 0 01-.75-.433 2.531 2.531 0 01-.574-.727 2.875 2.875 0 01-.305-1.02 2.709 2.709 0 01-.029-.392 2.3 2.3 0 01.041-.38c-.137.05-.262.097-.375.14-.11.043-.2.086-.27.129a5.85 5.85 0 01.34-.217 5.58 5.58 0 01.334-.193 3.02 3.02 0 01.34-.873c.164-.278.359-.536.586-.774.23-.238.486-.453.767-.645a5.209 5.209 0 011.799-.814c.313-.074.615-.111.908-.111.196 0 .36.03.492.088a.477.477 0 01.276.31c.023.157-.033.324-.17.504a1.805 1.805 0 01-.24.252 2.837 2.837 0 01-.387.276 5.67 5.67 0 01-.568.304 7.61 7.61 0 01-.78.316l4.295-1.4zm-4.646 1.424a3.25 3.25 0 00.451-.24 1.23 1.23 0 00.316-.27.484.484 0 00.123-.293.507.507 0 00-.123-.322.434.434 0 00-.246-.176.956.956 0 00-.316-.053c-.102 0-.199.012-.293.036-.094.02-.176.047-.246.082a.922.922 0 00-.194.181 2.08 2.08 0 00-.252.358 3.756 3.756 0 00-.246.51 3 3 0 00-.164.632c.246-.09.469-.17.668-.24.199-.07.373-.139.522-.205zm21.491 3.24c-.168.164-.34.32-.516.469a4.444 4.444 0 01-.516.387 2.27 2.27 0 01-.509.246 1.01 1.01 0 01-.487.052.549.549 0 01-.369-.199 1.054 1.054 0 01-.193-.41 3.372 3.372 0 01-.088-.586c-.016-.218-.031-.453-.047-.703-.02-.21-.047-.533-.082-.967-.016-.183-.035-.4-.059-.65-.019-.254-.043-.545-.07-.873a71.367 71.367 0 00-.088-1.113c-.035-.414-.072-.877-.111-1.39-.199.25-.41.518-.633.804-.223.28-.443.574-.662.879-.215.304-.424.617-.627.937-.199.32-.379.643-.539.967a7.95 7.95 0 00-.393.955c-.105.312-.17.615-.193.908l-1.307 1.36a2.365 2.365 0 00-.011-.405 3.78 3.78 0 00-.059-.363 2.819 2.819 0 00-.1-.352 20.245 20.245 0 00-.586-1.347 40.03 40.03 0 00-.644-1.313 66.082 66.082 0 00-.68-1.289 87.095 87.095 0 01-.668-1.283c-.09.39-.17.75-.24 1.078-.07.324-.133.608-.188.85-.062.28-.117.535-.164.761-.32 1.48-.42 2.297-.298 2.45a.39.39 0 00.152.093c.07.024.156.035.258.035.121 0 .254-.023.398-.07a1.77 1.77 0 00.475-.264c-.25.235-.479.452-.686.65a6.6 6.6 0 01-.58.505c-.18.136-.348.234-.504.293a.65.65 0 01-.445.017.393.393 0 01-.234-.205.898.898 0 01-.071-.386c0-.223.037-.5.112-.832.078-.336.162-.723.252-1.16l.187-.844c.07-.325.145-.664.223-1.02.078-.355.156-.717.234-1.084a317.54 317.54 0 01.416-1.963c.059-.273.106-.496.141-.668.015-.047.074-.125.175-.234a12.6 12.6 0 01.393-.393l.322-.293c.125-.113.268-.238.428-.375a1.32 1.32 0 00-.012.463 3.735 3.735 0 00.264.944c.055.125.145.312.27.562l.439.855.539 1.02c.191.36.375.715.551 1.067.18.351.346.685.498 1.001.152.317.273.586.363.809.172-.309.361-.613.569-.914.21-.3.425-.602.644-.902.223-.301.443-.602.662-.903.223-.304.432-.613.627-.925.199-.313.381-.633.545-.961.164-.329.301-.666.41-1.014.102-.121.223-.25.363-.387.118-.117.262-.252.434-.404.172-.152.367-.317.586-.492-.043.12-.072.26-.088.416a9.854 9.854 0 00-.035.445 5.17 5.17 0 000 .498c.004.11.014.281.029.516.02.234.041.508.065.82.023.309.05.647.082 1.014.035.367.068.738.099 1.113l.106 1.107.099.99c.032.298.061.553.088.768.028.215.051.365.071.451a.683.683 0 00.099.252.666.666 0 00.164.164.762.762 0 00.2.088 1.074 1.074 0 00.515-.017c.094-.032.172-.067.235-.106zm10.569-.152c-.293.215-.549.4-.767.556a5.843 5.843 0 01-.61.387 2.247 2.247 0 01-.539.205 1.84 1.84 0 01-.557.047.92.92 0 01-.392-.1.706.706 0 01-.264-.24 1.334 1.334 0 01-.164-.398 3.63 3.63 0 01-.07-.569 8.09 8.09 0 01-.692.534 5.214 5.214 0 01-.744.428 4.297 4.297 0 01-.791.275c-.269.066-.547.1-.832.1-.39 0-.711-.06-.961-.176a1.48 1.48 0 01-.597-.492 2.022 2.022 0 01-.305-.756 5.254 5.254 0 01-.082-.967c0-.23.004-.457.012-.68.007-.223.011-.44.011-.65a7.51 7.51 0 00-.029-.692 2.219 2.219 0 00-.105-.556.816.816 0 00-.229-.375.543.543 0 00-.392-.14c-.137 0-.301.034-.493.105.145-.114.295-.229.452-.346.16-.117.322-.223.486-.316a3.11 3.11 0 01.51-.229c.175-.063.353-.094.533-.094.164 0 .293.04.387.117.097.078.171.18.222.305.051.121.084.258.1.41.015.149.023.295.023.44 0 .386-.004.755-.011 1.107a46.36 46.36 0 00-.012 1.055c.004.305.039.576.105.814.067.235.17.434.311.598.144.164.33.287.556.369.231.082.51.12.838.111a3.8 3.8 0 00.645-.058c.187-.035.349-.098.486-.188a1.14 1.14 0 00.352-.357c.097-.153.179-.346.246-.58.012-.52.027-1.014.047-1.483.019-.468.029-.935.029-1.4a.47.47 0 00-.07-.24.347.347 0 00-.176-.13c-.078-.03-.19-.026-.334.012l.381-.287c.14-.105.283-.205.428-.298a3.42 3.42 0 01.433-.235c.145-.062.279-.093.404-.093.133 0 .247.038.34.117.094.078.141.191.141.34 0 .081-.002.228-.006.439 0 .207-.004.45-.012.727l-.011.884-.012.903c-.004.285-.006.545-.006.779v.527c.008.223.094.387.258.492.168.106.373.159.615.159.145 0 .295-.018.451-.053.16-.04.315-.094.463-.164z" fill="#B95"/><path d="M243.562 29.055c0 .12.002.238.006.351.004.114.006.221.006.323 0 .218-.022.408-.065.568a.59.59 0 01-.275.369 6.356 6.356 0 01-.322.217 48.453 48.453 0 01-1.031.645c.046-.126.08-.276.099-.452a6.175 6.175 0 00.047-1.096 14.951 14.951 0 001.535-.926zm-.181 5.367c.019.07.031.223.035.457.008.234.011.521.011.861a98.698 98.698 0 01-.023 2.021 128.887 128.887 0 01-.064 2.754c-.004.212-.006.36-.006.446-.012.437-.182.892-.51 1.365-.328.477-.83.953-1.506 1.43a6.38 6.38 0 01-.814.492 5.63 5.63 0 01-.762.328 4.327 4.327 0 01-1.283.234 1.95 1.95 0 01-.369-.04 3.46 3.46 0 01-.838-.27 1.311 1.311 0 01-.323-.205.459.459 0 01-.158-.235c-.019-.078.008-.156.082-.234.078-.07.186-.158.322-.264.118-.09.274-.205.469-.345.196-.137.44-.305.733-.504a.477.477 0 00-.112.158.35.35 0 00.088.422.968.968 0 00.317.193c.125.055.265.098.421.13.157.034.309.062.458.081.148.02.283.031.404.035.121.008.211.012.269.012.246 0 .457-.039.633-.117.176-.078.322-.184.44-.317a1.53 1.53 0 00.287-.462 2.89 2.89 0 00.17-.557 4.37 4.37 0 00.076-.603c.015-.204.025-.399.029-.586l.006-.381.012-.739.011-.972c.004-.356.006-.711.006-1.067.004-.359.006-.705.006-1.037.004-.332.006-.62.006-.867 0-.484-.037-.832-.111-1.043-.075-.215-.213-.322-.416-.322-.067 0-.139.008-.217.023a1.916 1.916 0 00-.252.07c.133-.093.271-.189.416-.287.144-.097.293-.185.445-.263.153-.082.307-.149.463-.2.156-.05.315-.076.475-.076.164 0 .308.037.433.112a.53.53 0 01.241.369zm4.804-5.367c0 .113.001.222.005.328.004.101.006.201.006.299 0 .23-.019.427-.058.591a.638.638 0 01-.276.393 6.356 6.356 0 01-.322.217c-.215.14-.561.355-1.037.644.047-.125.08-.275.099-.45a5.769 5.769 0 00.047-1.097c.246-.128.463-.248.651-.357a19.443 19.443 0 00.885-.568zm2.062 9.984a15.33 15.33 0 01-1.137.691 6.19 6.19 0 01-.797.376c-.222.081-.41.128-.562.14a1.595 1.595 0 01-.416-.018 1.994 1.994 0 01-.334-.087.73.73 0 01-.299-.211 1.25 1.25 0 01-.211-.452c-.055-.195-.082-.46-.082-.796 0-.282.008-.559.024-.832l.046-.82c.02-.274.034-.544.041-.81.012-.269.014-.536.006-.802-.007-.258-.054-.445-.14-.563-.086-.12-.215-.181-.387-.181a1.11 1.11 0 00-.217.023 1.916 1.916 0 00-.252.07c.141-.097.285-.195.434-.292a4.07 4.07 0 01.451-.27c.152-.078.305-.14.457-.187.156-.051.311-.077.463-.077.164 0 .307.037.428.112a.525.525 0 01.24.369c.012.066.019.164.023.293.008.129.012.28.012.451 0 .254-.006.535-.018.844-.007.308-.017.613-.029.914-.012.297-.023.572-.035.826-.012.25-.02.443-.023.58a.961.961 0 00.07.387c.051.129.125.246.223.351.101.102.224.186.369.252.148.063.316.094.504.094.164 0 .341-.03.533-.088.191-.058.396-.154.615-.287zm6.82-.334a6.171 6.171 0 01-.61.463 6.07 6.07 0 01-1.722.82c-.329.098-.663.15-1.002.159a2.667 2.667 0 01-.621-.053 3 3 0 01-1.237-.534 2.459 2.459 0 01-.498-.503 2.56 2.56 0 01-.346-.68 2.757 2.757 0 01-.123-.85c0-.386.065-.746.194-1.078.129-.336.303-.64.521-.914.219-.277.477-.521.774-.732.297-.215.613-.395.949-.54a5.402 5.402 0 011.043-.328 4.957 4.957 0 011.254-.11 3.432 3.432 0 01.633.053c.117.015.222.036.316.063a.717.717 0 01.234.106c.063.039.094.088.094.146 0 .067-.033.131-.099.194a1.436 1.436 0 01-.235.175 5.34 5.34 0 01-.275.17l-.375.211c-.149.086-.332.188-.551.305.07-.125.082-.23.035-.316a.486.486 0 00-.258-.205 1.594 1.594 0 00-.445-.118 3.938 3.938 0 00-.891-.017c-.113.008-.22.02-.322.035a2.176 2.176 0 00-.264.047c-.074.02-.134.039-.181.058-.074.032-.151.112-.229.24-.078.126-.15.28-.217.463a4.033 4.033 0 00-.216 1.3c0 .353.066.681.199.986.133.304.312.57.539.797.23.226.498.404.803.533.304.129.627.193.967.193.367 0 .734-.053 1.101-.158.367-.11.721-.236 1.061-.38zm9.708.393a4.253 4.253 0 01-.533.45 4.6 4.6 0 01-.569.346 3.87 3.87 0 01-.556.235 1.934 1.934 0 01-.809.094.993.993 0 01-.375-.1.814.814 0 01-.305-.275c-.086-.125-.128-.303-.128-.533v-.698c-.215.211-.442.414-.68.61a6.668 6.668 0 01-.738.515c-.25.149-.504.266-.762.352-.258.09-.512.134-.762.134-.32 0-.601-.072-.844-.216a1.958 1.958 0 01-.609-.551 2.462 2.462 0 01-.369-.762 2.981 2.981 0 01-.123-.838c0-.207.015-.41.047-.609.031-.203.07-.395.117-.574.051-.18.107-.342.17-.487.066-.144.135-.263.205-.357.129-.176.293-.346.492-.51a5.884 5.884 0 011.406-.855c.266-.117.53-.219.791-.305a6.5 6.5 0 01.774-.2c.25-.046.48-.07.691-.07.219 0 .477.012.774.036.296.02.634.062 1.013.129l-.041 1.189-.029.926a36.067 36.067 0 00-.023 1.389c0 .214-.004.425-.012.632-.008.207.008.393.047.557a.755.755 0 00.228.398c.117.102.297.153.539.153.145 0 .299-.018.463-.053.164-.04.334-.09.51-.152zm-3.264-4.196a4.407 4.407 0 00-.75-.129 7.44 7.44 0 00-.761-.04 5.93 5.93 0 00-.704.04 1.939 1.939 0 00-.257.047.558.558 0 00-.17.059c-.071.035-.153.121-.246.258a2.756 2.756 0 00-.27.498c-.086.199-.16.424-.223.674-.058.25-.088.507-.088.773 0 .254.038.51.112.768.074.253.181.482.322.685.145.203.32.37.527.498.211.125.452.188.721.188.254 0 .479-.041.674-.123.195-.082.365-.194.51-.334a1.9 1.9 0 00.357-.504c.098-.192.176-.399.235-.621v-1.864l.011-.873z" fill="#B95"/></svg>